
<svg width="301px" height="378px" viewBox="0 0 301 378" version="1.1" xmlns="http://www.w3.org/2000/svg" xmlns:xlink="http://www.w3.org/1999/xlink">
    <!-- Generator: Sketch 51.3 (57544) - http://www.bohemiancoding.com/sketch -->
    <desc>Created with Sketch.</desc>
    <defs></defs>
    <g id="io-2.5-User-Flow-Version" stroke="none" stroke-width="1" fill="none" fill-rule="evenodd">
        <g id="lovemaker.io-2.5-Browse1-Own-Her" transform="translate(-37.000000, -203.000000)">
            <g id="Guide-Box" transform="translate(38.000000, 203.000000)">
                <path d="M0,4.99333925 C0,2.23559413 2.24229097,0 5.00325107,0 L294.996749,0 C297.759968,0 300,2.24730569 300,4.99333925 L300,358.006661 C300,360.764406 297.760496,363 295.001863,363 L281.884345,363 C281.884345,363 270,378 266,378 C262,378 249.910776,363 249.910776,363 L4.99206249,363 C2.23502251,363 0,360.752694 0,358.006661 L0,4.99333925 Z" id="Message-Background" fill="#FFFFFF"></path>
                <path d="M0,299 L299.4,299" id="Line" stroke="#F1F1F1" stroke-width="0.5" stroke-linecap="square"></path>
                <path d="M150,299 L150,362.4" id="Line" stroke="#F1F1F1" stroke-width="0.5" stroke-linecap="square"></path>
                <text id="强势霸占TA？" font-family="PingFangSC-Medium, PingFang SC" font-size="25" font-weight="400" line-spacing="28" letter-spacing="-0.200000003" fill="#000000">
                    <tspan x="71" y="55">强势霸占TA？</tspan>
                </text>
                <text id="我们为会员开小窗，特定VIP将强势买断自" font-family="PingFangSC-Medium, PingFang SC" font-size="17" font-weight="400" line-spacing="21" fill="#B3B3B3">
                    <tspan x="33.533" y="225">我们为会员开小窗，特定VIP将</tspan>
                    <tspan x="29.776" y="246">强势买断自己的心动会员，心动</tspan>
                    <tspan x="106.276" y="267">赶快行动！</tspan>
                </text>
                <g id="Boost" transform="translate(43.000000, 75.000000)" fill="#37E8B9">
                    <path d="M106,83.9974219 C106,82.8942762 106.88773,82 108,82 C109.104569,82 110,82.8909254 110,83.9974219 L110,99.0025781 C110,100.105724 109.11227,101 108,101 C106.895431,101 106,100.109075 106,99.0025781 L106,83.9974219 Z M113,87.992017 C113,86.8918564 113.88773,86 115,86 C116.104569,86 117,86.9001762 117,87.992017 L117,95.007983 C117,96.1081436 116.11227,97 115,97 C113.895431,97 113,96.0998238 113,95.007983 L113,87.992017 Z M99,87.992017 C99,86.8918564 99.8877296,86 101,86 C102.104569,86 103,86.9001762 103,87.992017 L103,95.007983 C103,96.1081436 102.11227,97 101,97 C99.8954305,97 99,96.0998238 99,95.007983 L99,87.992017 Z" id="Combined-Shape"></path>
                    <path d="M117.726704,0.973518021 C118.483517,0.169807594 118.911068,0.396009555 118.682385,1.47536184 L113.409202,26.3639998 C113.180197,27.4448709 113.668128,28.917187 114.49112,29.6455116 L123.702951,37.7977254 C124.529483,38.5291832 124.616959,39.8095464 123.90435,40.6503991 L92.9310272,77.1977704 C92.2157248,78.0418007 91.8575951,77.8538822 92.1280017,76.7903166 L100.297439,44.6582051 C100.569243,43.5891443 100.116006,42.1264024 99.2930149,41.3980777 L90.0811843,33.245864 C89.2546522,32.5144061 89.1941128,31.2741767 89.9549473,30.4661959 L117.726704,0.973518021 Z"></path>
                    <path d="M27.6886477,2.70460592 C28.4444352,1.90198485 28.8735443,2.1177917 28.6439223,3.20157324 L25.8682824,16.3021817 C25.6400785,17.3792703 26.1199122,18.8407787 26.9477724,19.5734119 L31.1664716,23.3068433 C31.9908614,24.0364053 32.0769784,25.3147865 31.3669342,26.1526123 L14.1401721,46.4795524 C13.4264947,47.3216652 13.0664432,47.1449332 13.3417538,46.0620788 L17.7571951,28.6952223 C18.0299182,27.6225452 17.5861744,26.164613 16.7583142,25.4319797 L12.539615,21.6985483 C11.7152252,20.9689863 11.666877,19.7191914 12.4153996,18.9242854 L27.6886477,2.70460592 Z" opacity="0.33" transform="translate(21.859230, 24.622997) rotate(-36.000000) translate(-21.859230, -24.622997) "></path>
                    <path d="M196.970187,2.70460592 C197.725974,1.90198485 198.155083,2.1177917 197.925461,3.20157324 L195.149821,16.3021817 C194.921618,17.3792703 195.401451,18.8407787 196.229312,19.5734119 L200.448011,23.3068433 C201.2724,24.0364053 201.358517,25.3147865 200.648473,26.1526123 L183.421711,46.4795524 C182.708034,47.3216652 182.347982,47.1449332 182.623293,46.0620788 L187.038734,28.6952223 C187.311457,27.6225452 186.867714,26.164613 186.039853,25.4319797 L181.821154,21.6985483 C180.996764,20.9689863 180.948416,19.7191914 181.696939,18.9242854 L196.970187,2.70460592 Z" id="Boost-Copy" opacity="0.33" transform="translate(191.140770, 24.622997) scale(-1, 1) rotate(-36.000000) translate(-191.140770, -24.622997) "></path>
                    <path d="M30.6947524,64.2028304 C31.4509688,63.3997538 31.8766783,63.632878 31.6481727,64.7113905 L30.0925644,72.053631 C29.8629074,73.1375775 30.3406129,74.6038045 31.1743278,75.3416189 L32.9536788,76.916295 C33.7807772,77.6482541 33.8701523,78.927325 33.156386,79.7695427 L22.616177,92.2065981 C21.9010307,93.0504442 21.5399013,92.8746731 21.8116912,91.8056662 L24.4117934,81.5789194 C24.6826345,80.5136447 24.2383153,79.0625543 23.4046004,78.3247398 L21.6252494,76.7500637 C20.798151,76.0181047 20.7359907,74.7787027 21.4969062,73.9706359 L30.6947524,64.2028304 Z" opacity="0.66" transform="translate(27.300736, 78.231992) rotate(-41.000000) translate(-27.300736, -78.231992) "></path>
                    <path d="M178.694752,64.0775887 C179.450969,63.2745122 179.876678,63.5076364 179.648173,64.5861488 L178.092564,71.9283893 C177.862907,73.0123359 178.340613,74.4785628 179.174328,75.2163773 L180.953679,76.7910534 C181.780777,77.5230125 181.870152,78.8020833 181.156386,79.644301 L170.616177,92.0813565 C169.901031,92.9252026 169.539901,92.7494315 169.811691,91.6804246 L172.411793,81.4536777 C172.682634,80.388403 172.238315,78.9373126 171.4046,78.1994982 L169.625249,76.6248221 C168.798151,75.892863 168.735991,74.6534611 169.496906,73.8453942 L178.694752,64.0775887 Z" opacity="0.66" transform="translate(175.300736, 78.106751) scale(-1, 1) rotate(-41.000000) translate(-175.300736, -78.106751) "></path>
                </g>
            </g>
        </g>
    </g>
</svg>