
<svg width="375px" height="1097px" viewBox="0 0 375 1097" version="1.1" xmlns="http://www.w3.org/2000/svg" xmlns:xlink="http://www.w3.org/1999/xlink">
    <!-- Generator: Sketch 51.3 (57544) - http://www.bohemiancoding.com/sketch -->
    <desc>Created with Sketch.</desc>
    <defs>
        <linearGradient x1="0%" y1="0%" x2="100%" y2="98.5290179%" id="linearGradient-1">
            <stop stop-color="#250E8A" offset="0%"></stop>
            <stop stop-color="#00F9F7" offset="100%"></stop>
        </linearGradient>
        <path d="M0,0 L483,0 L483,995.507204 C420.649186,917.141233 372.74662,881.584586 339.292301,888.837264 C239.529367,910.465216 228.462963,1002.51776 140.618197,1016.60653 C86.7977973,1025.23838 39.9250651,993.767797 0,922.194778 L0,0 Z" id="path-2"></path>
        <linearGradient x1="50%" y1="119.282375%" x2="50%" y2="1.87738054%" id="linearGradient-4">
            <stop stop-color="#FCB5C1" offset="0%"></stop>
            <stop stop-color="#FCEDED" offset="100%"></stop>
        </linearGradient>
        <linearGradient x1="50%" y1="100%" x2="50%" y2="43.6664559%" id="linearGradient-5">
            <stop stop-color="#EF5069" offset="0%"></stop>
            <stop stop-color="#F888A2" offset="100%"></stop>
        </linearGradient>
        <linearGradient x1="0%" y1="0%" x2="120.106091%" y2="0%" id="linearGradient-6">
            <stop stop-color="#FE6060" offset="0%"></stop>
            <stop stop-color="#FFD3DA" offset="100%"></stop>
        </linearGradient>
        <linearGradient x1="100%" y1="50%" x2="0%" y2="50%" id="linearGradient-7">
            <stop stop-color="#FFFFFF" stop-opacity="0" offset="0%"></stop>
            <stop stop-color="#EF5069" offset="98.959086%"></stop>
            <stop stop-color="#FFFFFF" offset="100%"></stop>
        </linearGradient>
        <linearGradient x1="100%" y1="0%" x2="1.78603685%" y2="0%" id="linearGradient-8">
            <stop stop-color="#FFD3DA" stop-opacity="0" offset="0%"></stop>
            <stop stop-color="#FE6060" offset="100%"></stop>
        </linearGradient>
        <rect id="path-9" x="0" y="0" width="375" height="79"></rect>
        <filter x="-1.1%" y="-2.5%" width="102.1%" height="110.1%" filterUnits="objectBoundingBox" id="filter-10">
            <feOffset dx="0" dy="2" in="SourceAlpha" result="shadowOffsetOuter1"></feOffset>
            <feGaussianBlur stdDeviation="1" in="shadowOffsetOuter1" result="shadowBlurOuter1"></feGaussianBlur>
            <feColorMatrix values="0 0 0 0 0   0 0 0 0 0   0 0 0 0 0  0 0 0 0.05 0" type="matrix" in="shadowBlurOuter1"></feColorMatrix>
        </filter>
    </defs>
    <g id="io-2.5-User-Flow-Version" stroke="none" stroke-width="1" fill="none" fill-rule="evenodd">
        <g id="Form-Signup-Page">
            <g id="Section1" transform="translate(-170.000000, -26.000000)">
                <g id="Section1-bg-shape" transform="translate(94.000000, 105.000000)">
                    <mask id="mask-3" fill="white">
                        <use xlink:href="#path-2"></use>
                    </mask>
                    <use id="BG" fill="url(#linearGradient-1)" xlink:href="#path-2"></use>
                    <rect id="pink" fill="url(#linearGradient-4)" mask="url(#mask-3)" x="76" y="-5" width="375" height="1336"></rect>
                </g>
                <g id="Curves" transform="translate(9.000000, 1026.000000)" fill="#FFFFFF" opacity="0.100000001">
                    <path d="M0,0 C52.5961393,0.654725586 85.7465229,19.1914779 169.223291,42.2907532 C224.874471,57.6902701 315.133373,63.0598483 440,58.3994878 C272.078878,110.29719 125.412212,108.471459 0,52.9222939" id="Path-2"></path>
                    <path d="M58,73.546172 C160.734228,49.9598636 246.861512,35.6442309 316.381853,30.5992737 C385.902195,25.5543165 469.441577,27.8532165 567,37.4959738 C539.245293,38.2574027 469.313268,51.8562155 357.203926,78.2924122 C245.094583,104.728609 145.359941,103.146529 58,73.546172 Z" id="Path-3"></path>
                </g>
                <g id="Styles" transform="translate(232.000000, 0.000000)">
                    <rect id="Rectangle-3" fill="url(#linearGradient-5)" opacity="0.100000001" transform="translate(287.000000, 163.500000) rotate(-30.000000) translate(-287.000000, -163.500000) " x="176" y="136" width="222" height="55" rx="27.5"></rect>
                    <rect id="Rectangle-3-Copy-4" fill="url(#linearGradient-6)" opacity="0.5" transform="translate(256.000000, 133.000000) rotate(-30.000000) translate(-256.000000, -133.000000) " x="243" y="131" width="26" height="4" rx="2"></rect>
                    <rect id="Rectangle-3-Copy-5" fill="url(#linearGradient-7)" opacity="0.5" transform="translate(14.500000, 225.000000) rotate(-30.000000) translate(-14.500000, -225.000000) " x="1" y="221" width="27" height="8" rx="4"></rect>
                    <rect id="Rectangle-3-Copy-6" fill="url(#linearGradient-8)" transform="translate(293.000000, 253.000000) rotate(-30.000000) translate(-293.000000, -253.000000) " x="283" y="250" width="20" height="6" rx="3"></rect>
                    <rect id="Rectangle-3-Copy" fill="#EF5069" opacity="0.049999997" transform="translate(130.500000, 75.500000) rotate(-30.000000) translate(-130.500000, -75.500000) " x="29" y="48" width="203" height="55" rx="27.5"></rect>
                    <rect id="Rectangle-3-Copy-3" fill="#EF5069" opacity="0.1" transform="translate(382.500000, 171.500000) rotate(-30.000000) translate(-382.500000, -171.500000) " x="281" y="144" width="203" height="55" rx="27.5"></rect>
                </g>
                <g id="Styles" transform="translate(267.000000, 539.000000)">
                    <rect id="Rectangle-3" fill="url(#linearGradient-5)" opacity="0.100000001" transform="translate(287.000000, 163.500000) rotate(-30.000000) translate(-287.000000, -163.500000) " x="176" y="136" width="222" height="55" rx="27.5"></rect>
                    <rect id="Rectangle-3-Copy-4" fill="url(#linearGradient-6)" opacity="0.5" transform="translate(256.000000, 133.000000) rotate(-30.000000) translate(-256.000000, -133.000000) " x="243" y="131" width="26" height="4" rx="2"></rect>
                    <rect id="Rectangle-3-Copy-5" fill="url(#linearGradient-7)" opacity="0.5" transform="translate(14.500000, 225.000000) rotate(-30.000000) translate(-14.500000, -225.000000) " x="1" y="221" width="27" height="8" rx="4"></rect>
                    <rect id="Rectangle-3-Copy" fill="#EF5069" opacity="0.049999997" transform="translate(130.500000, 75.500000) rotate(-30.000000) translate(-130.500000, -75.500000) " x="29" y="48" width="203" height="55" rx="27.5"></rect>
                </g>
                <g id="Styles" transform="translate(0.000000, 300.000000)" fill="#EF5069" opacity="0.049999997">
                    <rect id="Rectangle-3-Copy" transform="translate(106.500000, 69.000000) rotate(-30.000000) translate(-106.500000, -69.000000) " x="5" y="48" width="203" height="42" rx="21"></rect>
                    <rect id="Rectangle-3-Copy" transform="translate(98.500000, 120.000000) rotate(-30.000000) translate(-98.500000, -120.000000) " x="-3" y="99" width="203" height="42" rx="21"></rect>
                </g>
                <g id="Styles" transform="translate(0.000000, 499.000000)" fill="#EF5069" opacity="0.049999997">
                    <rect id="Rectangle-3-Copy" transform="translate(110.500000, 75.500000) rotate(-30.000000) translate(-110.500000, -75.500000) " x="9" y="48" width="203" height="55" rx="27.5"></rect>
                    <rect id="Rectangle-3-Copy" transform="translate(102.500000, 142.500000) rotate(-30.000000) translate(-102.500000, -142.500000) " x="1" y="115" width="203" height="55" rx="27.5"></rect>
                </g>
                <g id="Styles" transform="translate(255.000000, 461.000000)" fill="#EF5069" opacity="0.049999997">
                    <rect id="Rectangle-3-Copy" transform="translate(106.500000, 69.000000) rotate(-30.000000) translate(-106.500000, -69.000000) " x="5" y="48" width="203" height="42" rx="21"></rect>
                    <rect id="Rectangle-3-Copy" transform="translate(98.500000, 120.000000) rotate(-30.000000) translate(-98.500000, -120.000000) " x="-3" y="99" width="203" height="42" rx="21"></rect>
                </g>
                <g id="Styles" transform="translate(255.000000, 461.000000)" fill="#EF5069" opacity="0.049999997">
                    <rect id="Rectangle-3-Copy" transform="translate(106.500000, 69.000000) rotate(-30.000000) translate(-106.500000, -69.000000) " x="5" y="48" width="203" height="42" rx="21"></rect>
                    <rect id="Rectangle-3-Copy" transform="translate(98.500000, 120.000000) rotate(-30.000000) translate(-98.500000, -120.000000) " x="-3" y="99" width="203" height="42" rx="21"></rect>
                </g>
                <text id="为你量身打造的专属约会" font-family="WenYue-HouXianDaiTi-NC-W2-75, WenYue HouXianDaiTi (Non-Commercial Use)" font-size="24" font-weight="300" letter-spacing="1" fill="#000000">
                    <tspan x="208" y="174">为你量身打造的专属约会</tspan>
                    <tspan x="480.5" y="174"></tspan>
                </text>
                <text id="简单三步，立刻相约" font-family="PingFangSC-Medium, PingFang SC" font-size="18" font-weight="400" fill="#000000">
                    <tspan x="250" y="227">简单三步，立刻相约</tspan>
                </text>
            </g>
            <g id="Header-BG">
                <g>
                    <use fill="black" fill-opacity="1" filter="url(#filter-10)" xlink:href="#path-9"></use>
                    <use fill="#FFFFFF" fill-rule="evenodd" xlink:href="#path-9"></use>
                </g>
            </g>
        </g>
    </g>
</svg>