
<svg width="77px" height="77px" viewBox="0 0 77 77" version="1.1" xmlns="http://www.w3.org/2000/svg" xmlns:xlink="http://www.w3.org/1999/xlink">
    <!-- Generator: Sketch 51.3 (57544) - http://www.bohemiancoding.com/sketch -->
    <desc>Created with Sketch.</desc>
    <defs>
        <circle id="path-1" cx="187.5" cy="67.5" r="36.5"></circle>
        <filter x="-5.5%" y="-2.7%" width="111.0%" height="111.0%" filterUnits="objectBoundingBox" id="filter-2">
            <feOffset dx="0" dy="2" in="SourceAlpha" result="shadowOffsetOuter1"></feOffset>
            <feGaussianBlur stdDeviation="1" in="shadowOffsetOuter1" result="shadowBlurOuter1"></feGaussianBlur>
            <feColorMatrix values="0 0 0 0 0.840933248   0 0 0 0 0.840933248   0 0 0 0 0.840933248  0 0 0 0.5 0" type="matrix" in="shadowBlurOuter1"></feColorMatrix>
        </filter>
    </defs>
    <g id="io-2.5-User-Flow-Version" stroke="none" stroke-width="1" fill="none" fill-rule="evenodd">
        <g id="lovemaker.io-2.5-Browse1-Style2" transform="translate(-149.000000, -31.000000)">
            <g id="Oval-4">
                <use fill="black" fill-opacity="1" filter="url(#filter-2)" xlink:href="#path-1"></use>
                <use fill="#F2F2F2" fill-rule="evenodd" xlink:href="#path-1"></use>
            </g>
            <circle id="Oval-4" fill="#FFFFFF" cx="187.5" cy="67.5" r="30.5"></circle>
            <g id="balloons" transform="translate(173.000000, 49.000000)" fill-rule="nonzero">
                <path d="M11.8656853,4 C8.86272217,4 8.06283107,6.39823913 7.68979873,7.49693101 C6.49811227,7.16038451 4.1456397,6.80623337 2.39974046,8.50564965 C-0.0791479765,10.9188392 0.488081645,15.8000364 6.1005121,17.1620394 C11.2988075,18.4236148 13.0058907,19.3990201 14.1585266,18.8375134 C14.9459872,18.4538948 15.2438502,17.396154 16,15.1386437 C15.2773305,14.0675775 10.0733476,8.05275004 11.8656853,4 Z" id="Shape" fill="#FFD3DA"></path>
                <path d="M26.5052821,3.63233588 C24.2657181,2.20080636 21.9676554,3.18153884 20.8460972,3.85121106 C20.1676047,2.73583458 18.5938136,0.796285745 15.9443007,1.0173926 C14.0462748,1.17572662 12.3264949,2.42809321 11.4299359,4.2372325 C9.47822418,8.17544077 14.7637282,14.8723919 15.4698372,16.0039051 C16.2072868,17.1856594 16.695845,17.794161 17.3471795,17.9553561 C18.6733397,18.2836975 20.145374,16.7815557 25.0935799,14.0875885 C30.4356345,11.1789805 29.6851789,5.66521424 26.5052821,3.63233588 Z" id="Shape" fill="#FFD3DA"></path>
                <path d="M19.4995104,13 C19.4045095,13 19.3115085,13.0274863 19.2304577,13.0789605 C19.2304577,13.0789605 19.2304577,13.0789605 19.2304577,13.0794603 C19.1179566,13.1514243 19.0405058,13.2623688 19.0120055,13.3928036 C18.9830052,13.5227386 19.0070054,13.6566717 19.0790062,13.7691154 C19.1710071,13.9135432 19.3285087,14 19.5005104,14 C19.5955114,14 19.6885123,13.9725137 19.7689631,13.9215392 L19.7694631,13.9210395 C20.0015155,13.7726137 20.0699662,13.4632684 19.9215147,13.2308846 C19.8290137,13.0864068 19.6715121,13 19.4995104,13 Z" id="Shape" fill="#000000"></path>
                <path d="M25.6105608,6.29302206 C25.5113805,6.11483993 25.2976734,6 25.0671755,6 C24.9769021,6 24.8896981,6.01699425 24.8084521,6.05046777 C24.5092862,6.17251738 24.3817601,6.47944382 24.52373,6.73538752 C24.52373,6.7359025 24.52373,6.7359025 24.52373,6.73641747 L24.5243318,6.73693245 C24.5274011,6.74156725 24.7993646,7.25293966 24.7964156,7.88327182 C24.7956935,8.2437559 24.7102347,8.57900609 24.5418448,8.87975281 C24.3251888,9.26341087 23.9834139,9.58784654 23.4971415,9.871599 C22.6059029,10.3891511 21.9157332,10.7377907 21.3029577,11.0380225 C21.163997,11.1065145 21.0634926,11.2172346 21.0214253,11.3495837 C20.9792375,11.4824479 20.9996995,11.6214917 21.0797418,11.7404515 C21.1869264,11.9006094 21.3872128,12 21.6027254,12 C21.7068406,12 21.8096921,11.976311 21.9006876,11.932023 C22.5342259,11.6220067 23.2485288,11.2610076 24.1729278,10.7238864 C24.5112121,10.52768 24.8096557,10.3041799 25.05875,10.0595657 C25.2905719,9.83194576 25.4818912,9.58527165 25.6269304,9.32572311 C25.874821,8.88438761 26,8.39876405 26,7.88327182 C25.9969307,7.11183589 25.7303836,6.52167196 25.6159772,6.30383658 C25.6135699,6.29873831 25.6118246,6.29508197 25.6105608,6.29302206 Z" id="Shape" fill="#000000"></path>
                <path d="M26.272613,2.68050704 C25.4241974,2.1404507 24.4929736,1.86659155 23.5046563,1.86659155 C22.3539512,1.86659155 21.3240033,2.23583099 20.558679,2.62461972 C19.7524605,1.48422535 18.256759,0 15.9354114,0 C15.7854844,0 15.6322723,0.00642253521 15.4799665,0.0190422535 C13.5331814,0.180788732 11.7366065,1.38923944 10.7170804,3.19960563 C9.45218837,3.28090141 8.42371311,3.81132394 7.65759589,4.78208451 C7.15525273,5.41864789 6.85466245,6.13825352 6.6574408,6.70670423 C6.23382771,6.61138028 5.71579517,6.53295775 5.15766128,6.53295775 C3.71729747,6.53295775 2.45574722,7.0571831 1.50945709,8.04895775 C0.162719761,9.46050704 -0.330221104,11.5385352 0.223268283,13.4721127 C0.516438674,14.4969577 1.10096697,15.4362817 1.91352926,16.188507 C2.81014581,17.0186479 3.96674152,17.6229859 5.35131459,17.9847887 C7.08196013,18.4369577 8.39782847,18.8500845 9.45519031,19.1820282 C10.6700689,19.5634366 11.4829711,19.8184789 12.1489482,19.8924507 C11.9471386,20.2958873 11.7842977,20.7955493 11.7842977,21.3593803 C11.7842977,22.1967324 12.3614061,22.7513239 12.8706593,23.2406197 C13.3745318,23.7249577 13.6806728,24.0495211 13.6806728,24.472507 C13.6806728,25.3940845 12.8177006,26.1846197 12.8105073,26.1912113 C12.5774323,26.3988169 12.5577215,26.7549859 12.7664978,26.9867606 C12.8783624,27.1109859 13.0331038,27.1742535 13.1885249,27.1742535 C13.3230457,27.1742535 13.4581329,27.1268169 13.5662027,27.0304789 C13.617179,26.9851268 14.813423,25.9027606 14.813423,24.472507 C14.813423,23.5408451 14.1725942,22.9250704 13.6577335,22.4302535 C13.2603449,22.048338 12.9172177,21.7185352 12.9172177,21.3593803 C12.9172177,20.4032676 13.6774443,19.6633803 13.6892822,19.6519437 C13.7284206,19.6148732 13.760649,19.5733521 13.7868735,19.5291831 C14.4372178,19.052507 14.7676009,18.1668169 15.2494403,16.6292394 C15.6309696,17.1348169 15.9879736,17.476507 16.4037137,17.671493 C15.9971494,18.259493 15.5379662,19.1628169 15.5379662,20.2453521 C15.5379662,21.3036056 16.2942846,22.0304789 16.9616211,22.6717746 C17.5648407,23.251493 18.1346991,23.7990423 18.1346991,24.5083944 C18.1346991,25.8659155 16.8849867,27.0065352 16.8733188,27.0169577 C16.6403571,27.2245634 16.6206462,27.5807324 16.8294225,27.812507 C16.9412872,27.9367324 17.0960286,28 17.2514497,28 C17.3859705,28 17.5210577,27.9525634 17.6291275,27.8562254 C17.6960763,27.7966197 19.2673926,26.3749859 19.2673926,24.5083944 C19.2673926,23.3209014 18.4604943,22.5455211 17.7486952,21.8614085 C17.1702274,21.3055211 16.6706596,20.8254648 16.6706596,20.2453521 C16.6706596,19.0312113 17.4983449,18.0669296 17.7316465,17.8192676 C18.5304452,17.6656901 19.4309699,17.1192676 20.8755251,16.2423662 C21.8915395,15.6256338 23.1559784,14.8580282 24.8428976,13.9433239 C26.1856701,13.2151549 27.229325,12.2939718 27.9448624,11.2052958 C28.592488,10.219831 28.956119,9.09892958 28.9961637,7.96371831 C29.0716652,5.82264789 28.0281236,3.79825352 26.272613,2.68050704 Z M14.3571284,15.6845634 C13.8107757,17.4513803 13.5097323,18.4246197 13.0151489,18.6841127 C12.8798351,18.7550423 12.7256601,18.7880563 12.5298544,18.7880563 L12.5296279,18.7880563 C11.9640175,18.788 11.101555,18.5172958 9.79616514,18.107493 C8.72707876,17.7718873 7.39648393,17.3541408 5.63916079,16.8949859 C3.36788323,16.3015775 1.83140077,14.9763944 1.31257527,13.1636056 C0.868401736,11.6112676 1.25871031,9.94861972 2.33113847,8.82456338 C3.06865232,8.05160563 4.01958696,7.65966197 5.15771792,7.65966197 C5.84380234,7.65966197 6.46475036,7.80473239 6.86502764,7.9263662 C7.16272925,8.01695775 7.47776282,7.8515493 7.57093617,7.55622535 L7.5760338,7.54022535 C7.8873291,6.55267606 8.43413493,4.82078873 10.2256122,4.40591549 C9.3104176,8.09042254 12.8008785,13.0809577 14.1820531,15.055831 C14.2887069,15.208338 14.381597,15.3411831 14.4552861,15.4491831 C14.4456572,15.4531268 14.4362549,15.4576901 14.4262862,15.4610704 C14.4028938,15.5367887 14.3796712,15.6117183 14.3571284,15.6845634 Z M27.8639233,7.92422535 C27.7919901,9.96073239 26.526475,11.7470423 24.3006796,12.9540845 C22.5894051,13.8819718 21.311769,14.6574648 20.2852761,15.2806197 C18.7887251,16.1890704 17.8854816,16.7373521 17.2784671,16.7373521 C17.1995671,16.7373521 17.1249152,16.7283944 17.0501499,16.7099155 C16.6403004,16.6088451 16.2588277,16.1868169 15.5386458,15.0374648 C15.4496072,14.8953239 15.3078931,14.6927324 15.1117476,14.4123944 C14.4141652,13.4148169 13.1155155,11.5580282 12.2046256,9.54005634 C11.1349728,7.17019718 10.9220051,5.30642254 11.5718398,4.00056338 C12.3806071,2.37521127 13.9143142,1.27983099 15.5741593,1.14197183 C15.695313,1.13188732 15.8167499,1.1268169 15.9353548,1.1268169 C18.0271958,1.1268169 19.3100994,2.71594366 19.8887938,3.66315493 C20.0503886,3.92771831 20.3962345,4.01301408 20.6635203,3.85414085 C21.3237201,3.46146479 22.3525352,2.99340845 23.5045997,2.99340845 C24.2729825,2.99340845 24.9988284,3.20743662 25.6619169,3.62957746 C27.0818335,4.53357746 27.925548,6.17921127 27.8639233,7.92422535 Z" id="Shape" fill="#000000"></path>
            </g>
            <text id="找人" font-family="PingFangSC-Semibold, PingFang SC" font-size="10" font-weight="500" letter-spacing="0.9722225" fill="#000000">
                <tspan x="177" y="88">找人</tspan>
            </text>
        </g>
    </g>
</svg>