
<svg width="44px" height="54px" viewBox="0 0 44 54" version="1.1" xmlns="http://www.w3.org/2000/svg" xmlns:xlink="http://www.w3.org/1999/xlink">
    <!-- Generator: Sketch 51.3 (57544) - http://www.bohemiancoding.com/sketch -->
    <desc>Created with Sketch.</desc>
    <defs>
        <circle id="path-1" cx="95" cy="52" r="20"></circle>
        <filter x="-10.0%" y="-5.0%" width="120.0%" height="120.0%" filterUnits="objectBoundingBox" id="filter-2">
            <feOffset dx="0" dy="2" in="SourceAlpha" result="shadowOffsetOuter1"></feOffset>
            <feGaussianBlur stdDeviation="1" in="shadowOffsetOuter1" result="shadowBlurOuter1"></feGaussianBlur>
            <feColorMatrix values="0 0 0 0 0   0 0 0 0 0   0 0 0 0 0  0 0 0 0.05 0" type="matrix" in="shadowBlurOuter1"></feColorMatrix>
        </filter>
    </defs>
    <g id="io-2.5-User-Flow-Version" stroke="none" stroke-width="1" fill="none" fill-rule="evenodd">
        <g id="lovemaker.io-2.5-Browse1-Style2" transform="translate(-73.000000, -32.000000)">
            <text id="找事" font-family="PingFangSC-Semibold, PingFang SC" font-size="10" font-weight="500" letter-spacing="0.9722225" fill="#000000">
                <tspan x="84" y="85">找事</tspan>
            </text>
            <g id="Oval-4-Copy">
                <use fill="black" fill-opacity="1" filter="url(#filter-2)" xlink:href="#path-1"></use>
                <use fill="#FFFFFF" fill-rule="evenodd" xlink:href="#path-1"></use>
            </g>
            <g id="wine" transform="translate(85.000000, 38.000000)" fill-rule="nonzero">
                <path d="M8,12.1766998 C8,10.6752496 7.08852614,9.39698353 5.73814631,8.91676195 L5.6938058,1 L5.6938058,4.65093938 L3.3061942,4.65093938 L3.3061942,1 L3.26001069,8.91740575 C1.91060657,9.39811018 1,10.6758934 1,12.1766998 L1.00010841,17 L7.99989159,17 L8,12.1766998 Z" id="Shape" fill="#FFFFFF"></path>
                <path d="M1,26.8769769 C1,27.4972182 1.48208754,28 2.07676879,28 L6.92323121,28 C7.51796667,28 8,27.4972182 8,26.8769769 L8,25 L1,25 L1,26.8769769 Z" id="Shape" fill="#FFFFFF"></path>
                <rect id="Rectangle-path" fill="#EFEFEF" x="11" y="15" width="9" height="3"></rect>
                <path d="M15.5000286,23 C17.985289,23 20,21.2091701 20,19 L11,19 C11,21.2091701 13.014711,23 15.5000286,23 Z" id="Shape" fill="#FFFFFF"></path>
                <rect id="Rectangle-path" fill="#FFFFFF" x="3" y="1" width="3" height="3"></rect>
                <rect id="Rectangle-path" fill="#FFFFFF" x="1" y="17" width="7" height="8"></rect>
                <circle id="Oval" fill="#FFFFFF" cx="4.5" cy="21.5" r="1.5"></circle>
                <path d="M5.7596288,8.25663616 L5.71778779,0.544167484 C5.71617852,0.24313517 5.47645102,0 5.18136466,0 L2.8185817,0 C2.52354898,0 2.28387512,0.243080447 2.28215857,0.544058038 L2.23854737,8.25740229 C0.866913421,8.91906048 0,10.3279092 0,11.947497 L0.000214569252,26.4696658 C0.000214569252,27.3134975 0.718806995,28 1.60213496,28 L6.39786504,28 C7.28119301,28 7.99978543,27.3134975 7.99978543,26.4696658 L8,11.947497 C8,10.3270884 7.13238923,8.91791129 5.7596288,8.25663616 Z M4.6479455,1.09446397 L4.66221435,3.72396837 L3.33703465,3.72396837 L3.35183993,1.09446397 L4.6479455,1.09446397 Z M6.92704645,17.4145087 L6.92693917,24.279315 L1.07284626,24.279315 L1.07284626,17.4145087 L6.92704645,17.4145087 Z M6.39781139,26.905536 L1.60208132,26.905536 C1.31525587,26.905536 1.07300719,26.7059605 1.07300719,26.4696658 L1.07300719,25.373779 L6.92699281,25.373779 L6.92699281,26.4696658 C6.92693917,26.7059058 6.6845832,26.905536 6.39781139,26.905536 Z M6.9271001,16.3200447 L5.65014483,16.3200447 L5.65014483,13.5724477 C5.65014483,13.2709228 5.40929085,13.0252157 5.1137217,13.0252157 C4.81756249,13.0252157 4.57729857,13.2709228 4.57729857,13.5724477 L4.57729857,16.3200447 L1.07279262,16.3200447 L1.07279262,11.947497 C1.07279262,10.6604621 1.81144727,9.55762548 2.95456496,9.13789855 C3.16634481,9.06013689 3.30801416,8.85574574 3.30930158,8.6261272 L3.33081214,4.81843234 L4.66811501,4.81843234 L4.68882094,8.62536108 C4.69005472,8.85508906 4.83188499,9.05964438 5.04382577,9.1372966 C6.18790902,9.55664046 6.9271001,10.659696 6.9271001,11.9474423 L6.9271001,16.3200447 Z" id="Shape" fill="#000000"></path>
                <path d="M20,18.4349377 L20,15.5179964 C20,15.231907 19.7474295,15 19.4359747,15 L10.5640253,15 C10.2525705,15 10,15.231907 10,15.5179964 L10,18.4349377 C10,20.7911996 11.9435185,22.7381927 14.4358901,22.9963103 L14.4358901,26.9640072 L11.8413735,26.9640072 C11.5299187,26.9640072 11.2773482,27.1959142 11.2773482,27.4820036 C11.2773482,27.768093 11.5299187,28 11.8413735,28 L18.1584573,28 C18.4699121,28 18.7224826,27.768093 18.7224826,27.4820036 C18.7224826,27.1959142 18.4699121,26.9640072 18.1584573,26.9640072 L15.5639407,26.9640072 L15.5639407,22.9963621 C18.0563687,22.7382445 20,20.7911996 20,18.4349377 Z M18.8719493,16.0359928 L18.8719493,17.9169413 L11.1280507,17.9169413 L11.1280507,16.0359928 L18.8719493,16.0359928 Z M11.1696193,18.9529341 L18.8303807,18.9529341 C18.5563207,20.6683309 16.9433211,21.9896879 14.9999718,21.9896879 C13.0566225,21.9896879 11.4436793,20.6683827 11.1696193,18.9529341 Z" id="Shape" fill="#000000"></path>
                <path d="M4.49988979,22 C5.32707314,22 6,21.3271308 6,20.500022 C6,19.6729133 5.32702905,19 4.49988979,19 C3.67283869,19 3,19.6729133 3,20.500022 C3,21.3271308 3.67283869,22 4.49988979,22 Z M4.49988979,19.8818731 C4.84084998,19.8818731 5.11828241,20.1591781 5.11828241,20.500022 C5.11828241,20.8408219 4.84084998,21.1181269 4.49988979,21.1181269 C4.15901777,21.1181269 3.88171759,20.8408219 3.88171759,20.500022 C3.8816735,20.1591781 4.15897368,19.8818731 4.49988979,19.8818731 Z" id="Shape" fill="#000000"></path>
                <path d="M4.5,11 C4.22395,11 4,11.2245 4,11.5 C4,11.7755 4.22395,12 4.5,12 C4.7755,12 5,11.7755 5,11.5 C5,11.2245 4.77545,11 4.5,11 Z" id="Shape" fill="#000000"></path>
            </g>
        </g>
    </g>
</svg>