
<svg width="44px" height="55px" viewBox="0 0 44 55" version="1.1" xmlns="http://www.w3.org/2000/svg" xmlns:xlink="http://www.w3.org/1999/xlink">
    <!-- Generator: Sketch 51.3 (57544) - http://www.bohemiancoding.com/sketch -->
    <desc>Created with Sketch.</desc>
    <defs>
        <circle id="path-1" cx="20" cy="20" r="20"></circle>
        <filter x="-10.0%" y="-5.0%" width="120.0%" height="120.0%" filterUnits="objectBoundingBox" id="filter-2">
            <feOffset dx="0" dy="2" in="SourceAlpha" result="shadowOffsetOuter1"></feOffset>
            <feGaussianBlur stdDeviation="1" in="shadowOffsetOuter1" result="shadowBlurOuter1"></feGaussianBlur>
            <feColorMatrix values="0 0 0 0 0   0 0 0 0 0   0 0 0 0 0  0 0 0 0.05 0" type="matrix" in="shadowBlurOuter1"></feColorMatrix>
        </filter>
    </defs>
    <g id="io-2.5-User-Flow-Version" stroke="none" stroke-width="1" fill="none" fill-rule="evenodd">
        <g id="lovemaker.io-2.5-Browse1-Style2" transform="translate(-259.000000, -32.000000)">
            <text id="故事" font-family="PingFangSC-Semibold, PingFang SC" font-size="10" font-weight="500" letter-spacing="1.166667" fill="#000000">
                <tspan x="271" y="85">故事</tspan>
            </text>
            <g id="story" transform="translate(261.000000, 32.000000)">
                <g id="Oval-4-Copy-2">
                    <use fill="black" fill-opacity="1" filter="url(#filter-2)" xlink:href="#path-1"></use>
                    <use fill="#FFFFFF" fill-rule="evenodd" xlink:href="#path-1"></use>
                </g>
            </g>
            <g id="invoice" transform="translate(271.000000, 40.000000)" fill-rule="nonzero">
                <path d="M16.4058605,0.459444444 C16.4058605,0.459444444 4.59418605,0.475833333 4.60172093,0.475833333 C5.67893023,0.475833333 6.5695814,1.22314815 6.71627907,2.19458333 L6.71627907,19.8327778 L6.71627907,23.2406019 L19.4926977,23.2406019 L19.4926977,5.00893519 L19.4926977,3.68972222 C19.1894884,2.01055556 18.2151628,0.694398148 16.4058605,0.459444444 Z" id="Shape" fill="#FFFFFF"></path>
                <path d="M0.507395349,5.90074074 L0.507395349,18.897963 C0.507395349,19.414213 0.954093023,19.8328241 1.50511628,19.8328241 C2.03525581,19.8328241 2.46748837,19.4452315 2.49986047,18.9562037 L2.49986047,5.90074074 L0.507395349,5.90074074 Z" id="Shape" fill="#FFFFFF"></path>
                <path d="M4.60172093,0.47587963 C3.55167442,0.47587963 2.67930233,1.18578704 2.49990698,2.12115741 L2.49990698,5.90074074 C2.49990698,5.90074074 2.50097674,17.5658333 2.5,18.8430556 C2.5,18.8418981 2.49990698,18.8407407 2.49990698,18.8396296 L2.49990698,18.9562963 C2.4675814,19.4453241 2.03534884,19.8329167 1.50516279,19.8329167 L6.71627907,19.8329167 L6.71627907,2.19462963 C6.56953488,1.22314815 5.67893023,0.47587963 4.60172093,0.47587963 Z" id="Shape" fill="#FFFFFF"></path>
                <path d="M19.9504651,3.60773148 C19.7757209,2.64009259 19.4093953,1.83847222 18.8616279,1.22527778 C18.2488372,0.539259259 17.4428372,0.12712963 16.466,0.000277777778 C16.4460465,-0.00231481481 4.63493023,0.0127777778 4.63493023,0.0127777778 C4.63074419,0.0127777778 4.62660465,0.0128240741 4.62246512,0.0129166667 C4.6155814,0.0128703704 4.60860465,0.0128240741 4.60172093,0.0128240741 C3.34376744,0.0128240741 2.26767442,0.862962963 2.04302326,2.03430556 C2.03753488,2.06291667 2.03474419,2.09203704 2.03474419,2.12115741 L2.03474419,5.43773148 L0.507395349,5.43773148 C0.25055814,5.43773148 0.0422790698,5.6450463 0.0422790698,5.90074074 L0.0422790698,18.897963 C0.0422790698,19.66875 0.698511628,20.2958333 1.50511628,20.2958333 L6.25111628,20.2958333 L6.25111628,23.2406481 C6.25111628,23.4963426 6.45939535,23.7037037 6.71623256,23.7037037 L19.4926512,23.7037037 C19.7494884,23.7037037 19.9577674,23.4963426 19.9577674,23.2406481 C19.957814,23.2406944 19.9553488,3.63476852 19.9504651,3.60773148 Z M0.972511628,6.3637963 L2.03474419,6.3637963 L2.03474419,18.9382407 C2.01148837,19.18125 1.78153488,19.3697685 1.50511628,19.3697685 C1.21144186,19.3697685 0.972511628,19.1581019 0.972511628,18.897963 L0.972511628,6.3637963 Z M2.8812093,19.3697685 C2.88255814,19.3662037 2.96502326,18.8523611 2.96502326,18.8523611 C2.96506977,18.8493981 2.96511628,18.8463889 2.96511628,18.8433796 C2.96609302,17.6003241 2.96502326,2.16800926 2.96502326,2.16800926 C3.12302326,1.45328704 3.8044186,0.938842593 4.60172093,0.938842593 C5.36055814,0.938842593 6.13832558,1.58481481 6.25116279,2.23166667 L6.25116279,19.3697685 L2.8812093,19.3697685 Z M19.0275814,22.7776852 L7.18139535,22.7776852 L7.18139535,19.8328704 L7.18139535,2.19462963 C7.18139535,1.31606481 6.64772093,0.959537037 6.62776744,0.936064815 C9.86372093,0.931527778 15.888093,0.923194444 16.3751163,0.9225 C18.1716279,1.17009259 18.8102326,2.57569444 19.0275814,3.73180556 L19.0275814,22.7776852 Z" id="Shape" fill="#000000"></path>
                <path d="M17.069814,5.00828704 C17.326093,5.00828704 17.5349302,4.80078704 17.5349302,4.54527778 C17.5349302,4.29009259 17.326093,4.08222222 17.069814,4.08222222 C16.8135349,4.08222222 16.6046977,4.29009259 16.6046977,4.54527778 C16.6046977,4.80083333 16.8135814,5.00828704 17.069814,5.00828704 Z" id="Shape" fill="#000000"></path>
                <path d="M9.30237209,5.00828704 L15.2093488,5.00828704 C15.4656279,5.00828704 15.6744651,4.80078704 15.6744651,4.54527778 C15.6744651,4.29009259 15.4656279,4.08222222 15.2093488,4.08222222 L9.30237209,4.08222222 C9.0455814,4.08222222 8.83725581,4.29009259 8.83725581,4.54527778 C8.83725581,4.80083333 9.04562791,5.00828704 9.30237209,5.00828704 Z" id="Shape" fill="#000000"></path>
                <path d="M9.30237209,7.47810185 L15.2093488,7.47810185 C15.4656279,7.47810185 15.6744651,7.27023148 15.6744651,7.01509259 C15.6744651,6.75949074 15.4656279,6.55203704 15.2093488,6.55203704 L9.30237209,6.55203704 C9.04609302,6.55203704 8.83725581,6.75944444 8.83725581,7.01509259 C8.83725581,7.27023148 9.04609302,7.47810185 9.30237209,7.47810185 Z" id="Shape" fill="#000000"></path>
                <path d="M17.069814,7.47810185 C17.326093,7.47810185 17.5349302,7.27023148 17.5349302,7.01509259 C17.5349302,6.75949074 17.326093,6.55203704 17.069814,6.55203704 C16.8135349,6.55203704 16.6046977,6.75944444 16.6046977,7.01509259 C16.6046977,7.27023148 16.8135814,7.47810185 17.069814,7.47810185 Z" id="Shape" fill="#000000"></path>
                <path d="M17.069814,9.9475 C17.326093,9.9475 17.5349302,9.73958333 17.5349302,9.48444444 C17.5349302,9.22884259 17.326093,9.02143519 17.069814,9.02143519 C16.8130233,9.02143519 16.6046977,9.2287963 16.6046977,9.48444444 C16.6046977,9.73958333 16.8130698,9.9475 17.069814,9.9475 Z" id="Shape" fill="#000000"></path>
                <path d="M9.30237209,9.9475 L15.2093488,9.9475 C15.4656279,9.9475 15.6744651,9.73958333 15.6744651,9.48444444 C15.6744651,9.22884259 15.4656279,9.02143519 15.2093488,9.02143519 L9.30237209,9.02143519 C9.0455814,9.02143519 8.83725581,9.2287963 8.83725581,9.48444444 C8.83725581,9.73958333 9.04562791,9.9475 9.30237209,9.9475 Z" id="Shape" fill="#000000"></path>
                <path d="M17.069814,12.4168519 C17.326093,12.4168519 17.5349302,12.2089352 17.5349302,11.9537963 C17.5349302,11.6986111 17.326093,11.490787 17.069814,11.490787 C16.8130233,11.490787 16.6046977,11.6986111 16.6046977,11.9537963 C16.6046977,12.2088889 16.8130698,12.4168519 17.069814,12.4168519 Z" id="Shape" fill="#000000"></path>
                <path d="M9.30237209,12.4168519 L15.2093488,12.4168519 C15.4656279,12.4168519 15.6744651,12.2089352 15.6744651,11.9537963 C15.6744651,11.6986111 15.4656279,11.490787 15.2093488,11.490787 L9.30237209,11.490787 C9.04609302,11.490787 8.83725581,11.6986111 8.83725581,11.9537963 C8.83725581,12.2088889 9.04609302,12.4168519 9.30237209,12.4168519 Z" id="Shape" fill="#000000"></path>
                <path d="M17.3023721,13.9603704 L9.30237209,13.9603704 C9.04548837,13.9603704 8.83725581,14.1677315 8.83725581,14.4234259 C8.83725581,14.6790741 9.04548837,14.8864352 9.30237209,14.8864352 L17.3023721,14.8864352 C17.5592093,14.8864352 17.7674884,14.6791204 17.7674884,14.4234259 C17.7674884,14.1677315 17.5592558,13.9603704 17.3023721,13.9603704 Z" id="Shape" fill="#000000"></path>
                <path d="M17.3023721,16.4298148 L9.30237209,16.4298148 C9.04548837,16.4298148 8.83725581,16.6371296 8.83725581,16.8928704 C8.83725581,17.1486111 9.04548837,17.3558796 9.30237209,17.3558796 L17.3023721,17.3558796 C17.5592093,17.3558796 17.7674884,17.1485648 17.7674884,16.8928704 C17.7674884,16.6371759 17.5592558,16.4298148 17.3023721,16.4298148 Z" id="Shape" fill="#000000"></path>
                <path d="M17.3023721,18.8993981 L9.30237209,18.8993981 C9.04548837,18.8993981 8.83725581,19.106713 8.83725581,19.3624074 C8.83725581,19.6181019 9.04548837,19.825463 9.30237209,19.825463 L17.3023721,19.825463 C17.5592093,19.825463 17.7674884,19.6181019 17.7674884,19.3624074 C17.7674884,19.106713 17.5592558,18.8993981 17.3023721,18.8993981 Z" id="Shape" fill="#000000"></path>
            </g>
        </g>
    </g>
</svg>