
<svg width="301px" height="377px" viewBox="0 0 301 377" version="1.1" xmlns="http://www.w3.org/2000/svg" xmlns:xlink="http://www.w3.org/1999/xlink">
    <!-- Generator: Sketch 51.3 (57544) - http://www.bohemiancoding.com/sketch -->
    <desc>Created with Sketch.</desc>
    <defs></defs>
    <g id="io-2.5-User-Flow-Version" stroke="none" stroke-width="1" fill="none" fill-rule="evenodd">
        <g id="lovemaker.io-2.5-Browse1-Unblur-Copy" transform="translate(-37.000000, -203.000000)">
            <g id="Guide-Box" transform="translate(38.000000, 203.000000)">
                <path d="M0,4.99333925 C0,2.23559413 2.24229097,0 5.00325107,0 L294.996749,0 C297.759968,0 300,2.24730569 300,4.99333925 L300,358.006661 C300,360.764406 297.760496,363 295.001863,363 L281.884345,363 L249.910776,363 L169.742188,363 L153.182888,375.58166 C151.425027,376.917272 148.617127,376.872562 146.899761,375.472416 L131.601562,363 L4.99823783,363 C2.2377873,363 0,360.752694 0,358.006661 L0,4.99333925 Z" id="Message-Background" fill="#FFFFFF" transform="translate(150.000000, 188.636357) scale(-1, 1) translate(-150.000000, -188.636357) "></path>
                <path d="M0,299 L299,299" id="Line" stroke="#F1F1F1" stroke-width="0.5" stroke-linecap="square"></path>
                <path d="M150,299 L150,362" id="Line" stroke="#F1F1F1" stroke-width="0.5" stroke-linecap="square"></path>
                <text id="想要翻TA牌？" font-family="PingFangSC-Medium, PingFang SC" font-size="25" font-weight="400" line-spacing="28" letter-spacing="-0.200000003" fill="#000000">
                    <tspan x="69.775" y="54.2">想要翻TA牌？</tspan>
                </text>
                <text id="您将第一次主动翻牌会员。主动翻牌次数和权" font-family="PingFangSC-Medium, PingFang SC" font-size="17" font-weight="400" line-spacing="21" fill="#B3B3B3">
                    <tspan x="28.776" y="225">您将第一次主动翻牌会员。主动</tspan>
                    <tspan x="28.776" y="246">翻牌次数和权限与会员等级密切</tspan>
                    <tspan x="122.276" y="267">相关。</tspan>
                </text>
                <g id="Stars" transform="translate(51.000000, 75.000000)" fill="#14A1E8">
                    <path d="M21.1088424,88.437311 C21.1088424,88.437311 13.1434406,94.213073 10.583668,92.3554539 C8.02389536,90.4978348 11.0619277,81.146296 11.0619277,81.146296 C11.0619277,81.146296 3.13030186,75.2743171 4.07875247,72.3586837 C5.02720308,69.4430503 14.8995076,69.349186 14.8995076,69.349186 C14.8995076,69.349186 18.004175,60 21.1088424,60 C24.2135098,60 27.3181771,69.349186 27.3181771,69.349186 C27.3181771,69.349186 37.1692328,69.3777291 38.1389323,72.3586837 C39.1086318,75.3396383 31.155757,81.146296 31.155757,81.146296 C31.155757,81.146296 34.1457454,90.5327002 31.6340168,92.3554539 C29.1222881,94.1782076 21.1088424,88.437311 21.1088424,88.437311 Z" opacity="0.33" transform="translate(21.110456, 76.361822) rotate(-12.000000) translate(-21.110456, -76.361822) "></path>
                    <path d="M177.108842,88.437311 C177.108842,88.437311 169.143441,94.213073 166.583668,92.3554539 C164.023895,90.4978348 167.061928,81.146296 167.061928,81.146296 C167.061928,81.146296 159.130302,75.2743171 160.078752,72.3586837 C161.027203,69.4430503 170.899508,69.349186 170.899508,69.349186 C170.899508,69.349186 174.004175,60 177.108842,60 C180.21351,60 183.318177,69.349186 183.318177,69.349186 C183.318177,69.349186 193.169233,69.3777291 194.138932,72.3586837 C195.108632,75.3396383 187.155757,81.146296 187.155757,81.146296 C187.155757,81.146296 190.145745,90.5327002 187.634017,92.3554539 C185.122288,94.1782076 177.108842,88.437311 177.108842,88.437311 Z" id="Stars-Copy" opacity="0.33" transform="translate(177.110456, 76.361822) scale(-1, 1) rotate(-12.000000) translate(-177.110456, -76.361822) "></path>
                    <path d="M16.0650918,22.4370205 C16.0650918,22.4370205 10.2358872,26.6638128 8.36260586,25.3043783 C6.48932452,23.9449438 8.71260375,17.1013426 8.71260375,17.1013426 C8.71260375,17.1013426 2.90811684,12.8041373 3.60220772,10.6704315 C4.29629859,8.53672571 11.5210043,8.4680344 11.5210043,8.4680344 C11.5210043,8.4680344 13.7930481,1.62615495 16.0650918,1.62615495 C18.3371356,1.62615495 20.6091794,8.4680344 20.6091794,8.4680344 C20.6091794,8.4680344 27.8183348,8.48892264 28.527976,10.6704315 C29.2376171,12.8519403 23.4175799,17.1013426 23.4175799,17.1013426 C23.4175799,17.1013426 25.6056999,23.9704588 23.7675778,25.3043783 C21.9294558,26.6382978 16.0650918,22.4370205 16.0650918,22.4370205 Z" opacity="0.66" transform="translate(16.066273, 13.599990) rotate(-8.000000) translate(-16.066273, -13.599990) "></path>
                    <path d="M183.181368,24.4370205 C183.181368,24.4370205 177.352163,28.6638128 175.478882,27.3043783 C173.605601,25.9449438 175.82888,19.1013426 175.82888,19.1013426 C175.82888,19.1013426 170.024393,14.8041373 170.718484,12.6704315 C171.412575,10.5367257 178.637281,10.4680344 178.637281,10.4680344 C178.637281,10.4680344 180.909324,3.62615495 183.181368,3.62615495 C185.453412,3.62615495 187.725456,10.4680344 187.725456,10.4680344 C187.725456,10.4680344 194.934611,10.4889226 195.644252,12.6704315 C196.353893,14.8519403 190.533856,19.1013426 190.533856,19.1013426 C190.533856,19.1013426 192.721976,25.9704588 190.883854,27.3043783 C189.045732,28.6382978 183.181368,24.4370205 183.181368,24.4370205 Z" id="Stars-Copy-2" opacity="0.66" transform="translate(183.182549, 15.599990) scale(-1, 1) rotate(-8.000000) translate(-183.182549, -15.599990) "></path>
                    <path d="M99.3431185,60.5536786 C99.3431185,60.5536786 82.8168637,72.536968 77.5059634,68.6828641 C72.1950631,64.8287601 78.498235,45.4266111 78.498235,45.4266111 C78.498235,45.4266111 62.042057,33.243695 64.0098593,27.1944709 C65.9776617,21.1452468 86.460272,20.9505016 86.460272,20.9505016 C86.460272,20.9505016 92.9016952,1.55323386 99.3431185,1.55323386 C105.784542,1.55323386 112.225965,20.9505016 112.225965,20.9505016 C112.225965,20.9505016 132.664489,21.0097214 134.676378,27.1944709 C136.688266,33.3792205 120.188002,45.4266111 120.188002,45.4266111 C120.188002,45.4266111 126.391494,64.9010972 121.180274,68.6828641 C115.969053,72.464631 99.3431185,60.5536786 99.3431185,60.5536786 Z"></path>
                    <path d="M97,70.9974219 C97,69.8942762 97.8877296,69 99,69 C100.104569,69 101,69.8909254 101,70.9974219 L101,86.0025781 C101,87.1057238 100.11227,88 99,88 C97.8954305,88 97,87.1090746 97,86.0025781 L97,70.9974219 Z M104,74.9229674 C104,73.8234499 104.88773,72.9321149 106,72.9321149 C107.104569,72.9321149 108,73.8245778 108,74.9229674 L108,82.0770326 C108,83.1765501 107.11227,84.0678851 106,84.0678851 C104.895431,84.0678851 104,83.1754222 104,82.0770326 L104,74.9229674 Z M90,74.9229674 C90,73.8234499 90.8877296,72.9321149 92,72.9321149 C93.1045695,72.9321149 94,73.8245778 94,74.9229674 L94,82.0770326 C94,83.1765501 93.1122704,84.0678851 92,84.0678851 C90.8954305,84.0678851 90,83.1754222 90,82.0770326 L90,74.9229674 Z" id="Combined-Shape"></path>
                </g>
            </g>
        </g>
    </g>
</svg>