

<svg width="375px" height="792px" viewBox="0 0 375 792" version="1.1" xmlns="http://www.w3.org/2000/svg" xmlns:xlink="http://www.w3.org/1999/xlink">
    <!-- Generator: Sketch 51.3 (57544) - http://www.bohemiancoding.com/sketch -->
    <desc>Created with Sketch.</desc>
    <defs>
        <linearGradient x1="0%" y1="0%" x2="100%" y2="98.5290179%" id="linearGradient-1">
            <stop stop-color="#250E8A" offset="0%"></stop>
            <stop stop-color="#00F9F7" offset="100%"></stop>
        </linearGradient>
        <path d="M0,0 L483,0 L483,702.13573 C420.649186,646.863856 372.74662,621.785592 339.292301,626.900939 C239.529367,642.155231 228.462963,707.080306 140.618197,717.017177 C86.7977973,723.105262 39.9250651,700.908918 0,650.428144 L0,0 Z" id="path-2"></path>
        <linearGradient x1="50%" y1="119.282375%" x2="50%" y2="1.87738054%" id="linearGradient-4">
            <stop stop-color="#FCB5C1" offset="0%"></stop>
            <stop stop-color="#FCEDED" offset="100%"></stop>
        </linearGradient>
        <linearGradient x1="50%" y1="100%" x2="50%" y2="43.6664559%" id="linearGradient-5">
            <stop stop-color="#EF5069" offset="0%"></stop>
            <stop stop-color="#F888A2" offset="100%"></stop>
        </linearGradient>
        <linearGradient x1="0%" y1="0%" x2="120.106091%" y2="0%" id="linearGradient-6">
            <stop stop-color="#FE6060" offset="0%"></stop>
            <stop stop-color="#FFD3DA" offset="100%"></stop>
        </linearGradient>
        <linearGradient x1="100%" y1="50%" x2="0%" y2="50%" id="linearGradient-7">
            <stop stop-color="#FFFFFF" stop-opacity="0" offset="0%"></stop>
            <stop stop-color="#EF5069" offset="98.959086%"></stop>
            <stop stop-color="#FFFFFF" offset="100%"></stop>
        </linearGradient>
        <linearGradient x1="100%" y1="0%" x2="1.78603685%" y2="0%" id="linearGradient-8">
            <stop stop-color="#FFD3DA" stop-opacity="0" offset="0%"></stop>
            <stop stop-color="#FE6060" offset="100%"></stop>
        </linearGradient>
        <linearGradient x1="50%" y1="0%" x2="50%" y2="100%" id="linearGradient-9">
            <stop stop-color="#6F1F37" offset="0%"></stop>
            <stop stop-color="#742D6B" offset="100%"></stop>
        </linearGradient>
        <linearGradient x1="50%" y1="0%" x2="84.3810096%" y2="85.9522964%" id="linearGradient-10">
            <stop stop-color="#FD99B6" offset="0%"></stop>
            <stop stop-color="#EC7D9E" offset="47.908418%"></stop>
            <stop stop-color="#DA5F83" offset="100%"></stop>
        </linearGradient>
        <linearGradient x1="50%" y1="0%" x2="74.780649%" y2="100%" id="linearGradient-11">
            <stop stop-color="#D76A8B" offset="0%"></stop>
            <stop stop-color="#BF486C" offset="100%"></stop>
        </linearGradient>
        <linearGradient x1="50%" y1="0%" x2="50%" y2="100%" id="linearGradient-12">
            <stop stop-color="#9F4862" offset="0%"></stop>
            <stop stop-color="#94235C" offset="100%"></stop>
        </linearGradient>
        <rect id="path-13" x="0" y="0" width="375" height="79"></rect>
        <filter x="-1.1%" y="-2.5%" width="102.1%" height="110.1%" filterUnits="objectBoundingBox" id="filter-14">
            <feOffset dx="0" dy="2" in="SourceAlpha" result="shadowOffsetOuter1"></feOffset>
            <feGaussianBlur stdDeviation="1" in="shadowOffsetOuter1" result="shadowBlurOuter1"></feGaussianBlur>
            <feColorMatrix values="0 0 0 0 0   0 0 0 0 0   0 0 0 0 0  0 0 0 0.05 0" type="matrix" in="shadowBlurOuter1"></feColorMatrix>
        </filter>
    </defs>
    <g id="io-2.5-User-Flow-Version" stroke="none" stroke-width="1" fill="none" fill-rule="evenodd">
        <g id="Lovemaker.io-首页-Style-4-Step2">
            <g id="Section1" transform="translate(-170.000000, -31.000000)">
                <g id="Section1-bg-shape" transform="translate(94.000000, 105.000000)">
                    <mask id="mask-3" fill="white">
                        <use xlink:href="#path-2"></use>
                    </mask>
                    <use id="BG" fill="url(#linearGradient-1)" xlink:href="#path-2"></use>
                    <rect id="pink" fill="url(#linearGradient-4)" mask="url(#mask-3)" x="76" y="-4" width="375" height="722"></rect>
                </g>
                <g id="Curves" transform="translate(39.000000, 726.000000)" fill="#FFFFFF" opacity="0.100000001">
                    <path d="M0,0 C52.5961393,0.654725586 85.7465229,19.1914779 169.223291,42.2907532 C224.874471,57.6902701 315.133373,63.0598483 440,58.3994878 C272.078878,110.29719 125.412212,108.471459 0,52.9222939" id="Path-2"></path>
                    <path d="M58,73.546172 C160.734228,49.9598636 246.861512,35.6442309 316.381853,30.5992737 C385.902195,25.5543165 469.441577,27.8532165 567,37.4959738 C539.245293,38.2574027 469.313268,51.8562155 357.203926,78.2924122 C245.094583,104.728609 145.359941,103.146529 58,73.546172 Z" id="Path-3"></path>
                </g>
                <g id="Styles" transform="translate(232.000000, 0.000000)">
                    <rect id="Rectangle-3" fill="url(#linearGradient-5)" opacity="0.100000001" transform="translate(287.000000, 163.500000) rotate(-30.000000) translate(-287.000000, -163.500000) " x="176" y="136" width="222" height="55" rx="27.5"></rect>
                    <rect id="Rectangle-3-Copy-4" fill="url(#linearGradient-6)" opacity="0.5" transform="translate(256.000000, 133.000000) rotate(-30.000000) translate(-256.000000, -133.000000) " x="243" y="131" width="26" height="4" rx="2"></rect>
                    <rect id="Rectangle-3-Copy-5" fill="url(#linearGradient-7)" opacity="0.5" transform="translate(14.500000, 225.000000) rotate(-30.000000) translate(-14.500000, -225.000000) " x="1" y="221" width="27" height="8" rx="4"></rect>
                    <rect id="Rectangle-3-Copy-6" fill="url(#linearGradient-8)" transform="translate(293.000000, 253.000000) rotate(-30.000000) translate(-293.000000, -253.000000) " x="283" y="250" width="20" height="6" rx="3"></rect>
                    <rect id="Rectangle-3-Copy" fill="#EF5069" opacity="0.049999997" transform="translate(130.500000, 75.500000) rotate(-30.000000) translate(-130.500000, -75.500000) " x="29" y="48" width="203" height="55" rx="27.5"></rect>
                    <rect id="Rectangle-3-Copy-3" fill="#EF5069" opacity="0.1" transform="translate(382.500000, 171.500000) rotate(-30.000000) translate(-382.500000, -171.500000) " x="281" y="144" width="203" height="55" rx="27.5"></rect>
                </g>
                <g id="Styles" transform="translate(0.000000, 300.000000)" fill="#EF5069" opacity="0.049999997">
                    <rect id="Rectangle-3-Copy" transform="translate(106.500000, 69.000000) rotate(-30.000000) translate(-106.500000, -69.000000) " x="5" y="48" width="203" height="42" rx="21"></rect>
                    <rect id="Rectangle-3-Copy" transform="translate(98.500000, 120.000000) rotate(-30.000000) translate(-98.500000, -120.000000) " x="-3" y="99" width="203" height="42" rx="21"></rect>
                </g>
                <g id="3D-heart" transform="translate(272.000000, 227.000000)">
                    <polygon id="Rectangle-1" fill="url(#linearGradient-9)" points="0 34 0 96.7777778 83 147 83 84.2222222"></polygon>
                    <polygon id="Rectangle-3" fill="url(#linearGradient-10)" points="38.3076923 -7.06505561e-17 0 33.0909091 83 84 83 31.1818182"></polygon>
                    <polygon id="Rectangle-4" fill="url(#linearGradient-11)" transform="translate(124.500000, 42.000000) scale(-1, 1) translate(-124.500000, -42.000000) " points="121.307692 -7.06505561e-17 83 33.0909091 166 84 166 31.1818182"></polygon>
                    <polygon id="Rectangle-2" fill="url(#linearGradient-12)" transform="translate(124.500000, 90.500000) scale(-1, 1) translate(-124.500000, -90.500000) " points="83 34 83 96.7777778 166 147 166 84.2222222"></polygon>
                </g>
                <text id="为你量身打造的专属约会" font-family="WenYue-HouXianDaiTi-NC-W2-75, WenYue HouXianDaiTi (Non-Commercial Use)" font-size="26" font-weight="300" letter-spacing="1" fill="#000000">
                    <tspan x="208" y="174">为你量身打造的专属约会</tspan>
                   
                </text>
                <text id="简单三步，立刻相约" font-family="PingFangSC-Medium, PingFang SC" font-size="24" font-weight="400" fill="#000000">
                    <tspan x="198" y="542">简单三步，立刻相约</tspan>
                </text>
                <text id="是有趣的灵魂还是好看的皮囊只要你遇见…" font-family="WenYue-HouXianDaiTi-NC-W2-75, WenYue HouXianDaiTi (Non-Commercial Use)" font-size="22" font-weight="300" letter-spacing="0.333333" fill="#000000">
                    <tspan x="198" y="444">是有趣的灵魂还是好看的皮囊</tspan>
                    <tspan x="198" y="475">只要你遇见</tspan>
                    <tspan x="308.416665" y="475" letter-spacing="3.08642">…</tspan>
                </text>
            </g>
            <g id="Form-side-style" transform="translate(384.000000, 521.000000) rotate(-120.000000) translate(-384.000000, -521.000000) translate(273.000000, 426.000000)">
                <rect id="Rectangle-3-Copy-7" fill="#FF9DAD" transform="translate(108.500000, 123.000000) rotate(-30.000000) translate(-108.500000, -123.000000) " x="10" y="103" width="197" height="40" rx="20"></rect>
                <rect id="Rectangle-3-Copy-8" fill="#EF5069" transform="translate(95.500000, 67.000000) rotate(-30.000000) translate(-95.500000, -67.000000) " x="-3" y="47" width="197" height="40" rx="20"></rect>
                <rect id="Rectangle-3" fill="#7266CE" transform="translate(126.500000, 81.000000) rotate(-30.000000) translate(-126.500000, -81.000000) " x="28" y="61" width="197" height="40" rx="20"></rect>
            </g>
            <g id="Header-BG">
                <g>
                    <use fill="black" fill-opacity="1" filter="url(#filter-14)" xlink:href="#path-13"></use>
                    <use fill="#FFFFFF" fill-rule="evenodd" xlink:href="#path-13"></use>
                </g>
                <g id="ic_drawer" transform="translate(6.000000, 38.000000)"></g>
            </g>
        </g>
    </g>
</svg>