
<svg width="301px" height="378px" viewBox="0 0 301 378" version="1.1" xmlns="http://www.w3.org/2000/svg" xmlns:xlink="http://www.w3.org/1999/xlink">
    <!-- Generator: Sketch 51.3 (57544) - http://www.bohemiancoding.com/sketch -->
    <desc>Created with Sketch.</desc>
    <defs></defs>
    <g id="io-2.5-User-Flow-Version" stroke="none" stroke-width="1" fill="none" fill-rule="evenodd">
        <g id="lovemaker.io-2.5-Browse1-Unblur" transform="translate(-37.000000, -203.000000)">
            <g id="Guide-Box" transform="translate(38.000000, 203.000000)">
                <path d="M0,4.99333925 C0,2.23559413 2.24229097,0 5.00325107,0 L294.996749,0 C297.759968,0 300,2.24730569 300,4.99333925 L300,358.006661 C300,360.764406 297.760496,363 295.001863,363 L281.884345,363 C281.884345,363 270,378 266,378 C262,378 249.910776,363 249.910776,363 L4.99206249,363 C2.23502251,363 0,360.752694 0,358.006661 L0,4.99333925 Z" id="Message-Background" fill="#FFFFFF" transform="translate(150.000000, 189.000000) scale(-1, 1) translate(-150.000000, -189.000000) "></path>
                <path d="M0,299 L299.4,299" id="Line" stroke="#F1F1F1" stroke-width="0.5" stroke-linecap="square"></path>
                <path d="M150,299 L150,362.4" id="Line" stroke="#F1F1F1" stroke-width="0.5" stroke-linecap="square"></path>
                <text id="想看TA真相？" font-family="PingFangSC-Medium, PingFang SC" font-size="25" font-weight="400" line-spacing="28" letter-spacing="-0.200000003" fill="#000000">
                    <tspan x="73" y="55">想看</tspan>
                    <tspan x="120.475" y="55.8" font-family="ProximaNovaSoft-Medium, Proxima Nova Soft">TA</tspan>
                    <tspan x="151.5" y="55">真相？</tspan>
                </text>
                <text id="您将第一次为会员照片去码。高级会员有权限" font-family="PingFangSC-Medium, PingFang SC" font-size="17" font-weight="400" line-spacing="21" fill="#B3B3B3">
                    <tspan x="28.776" y="225">您将第一次为会员照片去码。高</tspan>
                    <tspan x="28.776" y="246">级会员有权限查看会员真相，请</tspan>
                    <tspan x="71.276" y="267">联系您的专属客服。</tspan>
                </text>
                <g id="Hearts" transform="translate(30.000000, 75.000000)">
                    <path d="M120.431219,23.3195847 C116.091344,17.8730741 110.145094,14 102.75,14 C92.3351875,14 85,22.8816632 85,32.5687498 C85,37.7643907 87.1455312,41.5054283 89.4951875,45.0220035 L117.080906,77.8243008 C120.176062,80.7048997 120.761812,80.7048997 123.856969,77.8243008 L151.504812,45.0220035 C154.269375,41.5054283 156,37.7643907 156,32.5687498 C156,22.8816632 148.664812,14 138.25,14 C130.854906,14 124.897562,18.0535242 120.431219,23.3195847 Z" id="Heart" fill="#EF5069"></path>
                    <path d="M24.4066206,10.2374458 C21.9730981,7.18339332 18.6388238,5.01162267 14.4921313,5.01162267 C8.65217494,5.01162267 4.539074,9.99188763 4.539074,15.4237822 C4.539074,18.3371631 5.7421498,20.4348962 7.05968577,22.4067652 L22.527981,40.8001819 C24.2635454,42.4154363 24.5919963,42.4154363 26.3275606,40.8001819 L41.8306916,22.4067652 C43.3808802,20.4348962 44.3513033,18.3371631 44.3513033,15.4237822 C44.3513033,9.99188763 40.2382024,5.01162267 34.398246,5.01162267 C30.2515535,5.01162267 26.9110586,7.28457808 24.4066206,10.2374458 Z" id="Heart" fill="#EF5069" opacity="0.33" transform="translate(24.445189, 23.511623) rotate(-17.000000) translate(-24.445189, -23.511623) "></path>
                    <path d="M216.516243,10.2374458 C214.082721,7.18339332 210.748447,5.01162267 206.601754,5.01162267 C200.761798,5.01162267 196.648697,9.99188763 196.648697,15.4237822 C196.648697,18.3371631 197.851772,20.4348962 199.169308,22.4067652 L214.637604,40.8001819 C216.373168,42.4154363 216.701619,42.4154363 218.437183,40.8001819 L233.940314,22.4067652 C235.490503,20.4348962 236.460926,18.3371631 236.460926,15.4237822 C236.460926,9.99188763 232.347825,5.01162267 226.507869,5.01162267 C222.361176,5.01162267 219.020681,7.28457808 216.516243,10.2374458 Z" id="Heart-Copy-2" fill="#EF5069" opacity="0.33" transform="translate(216.554811, 23.511623) scale(-1, 1) rotate(-17.000000) translate(-216.554811, -23.511623) "></path>
                    <path d="M28.93825,67.1401554 C27.4759658,65.3049996 25.472427,64 22.9807126,64 C19.4715295,64 17,66.9926014 17,70.2565835 C17,72.0072108 17.7229186,73.2677218 18.5146155,74.4526022 L27.8093905,85.5050593 C28.8522773,86.4756528 29.0496408,86.4756528 30.0925275,85.5050593 L39.4082351,74.4526022 C40.3397311,73.2677218 40.9228505,72.0072108 40.9228505,70.2565835 C40.9228505,66.9926014 38.451321,64 34.9421379,64 C32.4504235,64 30.4431468,65.3658008 28.93825,67.1401554 Z" id="Heart" fill="#EF5069" opacity="0.66" transform="translate(28.961425, 75.116502) rotate(-37.000000) translate(-28.961425, -75.116502) "></path>
                    <path d="M212.93825,67.1401554 C211.475966,65.3049996 209.472427,64 206.980713,64 C203.471529,64 201,66.9926014 201,70.2565835 C201,72.0072108 201.722919,73.2677218 202.514615,74.4526022 L211.80939,85.5050593 C212.852277,86.4756528 213.049641,86.4756528 214.092528,85.5050593 L223.408235,74.4526022 C224.339731,73.2677218 224.922851,72.0072108 224.922851,70.2565835 C224.922851,66.9926014 222.451321,64 218.942138,64 C216.450423,64 214.443147,65.3658008 212.93825,67.1401554 Z" id="Heart-Copy" fill="#EF5069" opacity="0.66" transform="translate(212.961425, 75.116502) scale(-1, 1) rotate(-37.000000) translate(-212.961425, -75.116502) "></path>
                    <path d="M119,83.9974219 C119,82.8942762 119.88773,82 121,82 C122.104569,82 123,82.8909254 123,83.9974219 L123,99.0025781 C123,100.105724 122.11227,101 121,101 C119.895431,101 119,100.109075 119,99.0025781 L119,83.9974219 Z M126,87.992017 C126,86.8918564 126.88773,86 128,86 C129.104569,86 130,86.9001762 130,87.992017 L130,95.007983 C130,96.1081436 129.11227,97 128,97 C126.895431,97 126,96.0998238 126,95.007983 L126,87.992017 Z M112,87.992017 C112,86.8918564 112.88773,86 114,86 C115.104569,86 116,86.9001762 116,87.992017 L116,95.007983 C116,96.1081436 115.11227,97 114,97 C112.895431,97 112,96.0998238 112,95.007983 L112,87.992017 Z" id="Combined-Shape" fill="#FFD3DA"></path>
                </g>
            </g>
        </g>
    </g>
</svg>