
<svg width="28px" height="28px" viewBox="0 0 28 28" version="1.1" xmlns="http://www.w3.org/2000/svg" xmlns:xlink="http://www.w3.org/1999/xlink">
    <!-- Generator: Sketch 51.3 (57544) - http://www.bohemiancoding.com/sketch -->
    <desc>Created with Sketch.</desc>
    <defs></defs>
    <g id="io-2.5-User-Flow-Version" stroke="none" stroke-width="1" fill="none" fill-rule="evenodd">
        <g id="lovemaker.io-Menu-Slide-Left" transform="translate(-166.000000, -732.000000)">
            <g id="关注我们-Connect-with-us" transform="translate(60.000000, 698.000000)">
                <g id="linkedin" transform="translate(106.000000, 34.000000)">
                    <circle id="Oval" stroke="#000000" stroke-width="2" cx="14" cy="14" r="13"></circle>
                    <path d="M7.95738904,11.7174356 L10.4380399,11.7174356 L10.4380399,20.3628215 L7.95738904,20.3628215 L7.95738904,11.7174356 Z M9.13448217,10.6360493 L9.11652271,10.6360493 C8.21854956,10.6360493 7.63636364,9.97515687 7.63636364,9.13824375 C7.63636364,8.28421751 8.23576071,7.63636364 9.15169332,7.63636364 C10.0668776,7.63636364 10.6296075,8.28258769 10.6475669,9.13579902 C10.6475669,9.97271214 10.0668776,10.6360493 9.13448217,10.6360493 L9.13448217,10.6360493 Z M20.3636364,20.3636364 L17.5507355,20.3636364 L17.5507355,15.8889626 C17.5507355,14.7179362 17.1107286,13.9193239 16.1431626,13.9193239 C15.403083,13.9193239 14.991512,14.4579797 14.7999444,14.9787076 C14.7281066,15.1645072 14.7393312,15.4244636 14.7393312,15.685235 L14.7393312,20.3636364 L11.9526212,20.3636364 C11.9526212,20.3636364 11.9885402,12.4378165 11.9526212,11.7174356 L14.7393312,11.7174356 L14.7393312,13.0742616 C14.9039596,12.4810068 15.7944497,11.6343147 17.2154922,11.6343147 C18.9785128,11.6343147 20.3636364,12.8786831 20.3636364,15.5556642 L20.3636364,20.3636364 L20.3636364,20.3636364 Z" id="Shape" fill="#000000"></path>
                </g>
            </g>
        </g>
    </g>
</svg>