<?xml version="1.0" encoding="UTF-8"?>
<svg xmlns="http://www.w3.org/2000/svg" xmlns:xlink="http://www.w3.org/1999/xlink" viewBox="0 0 16 16" version="1.1" width="24px" height="24px">
<g id="surface1">
<path style=" " d="M 11.625 1 C 11.183594 1 10.753906 1.066406 10.351563 1.195313 C 10.085938 1.273438 9.941406 1.554688 10.023438 1.820313 C 10.105469 2.082031 10.382813 2.230469 10.648438 2.148438 C 10.957031 2.050781 11.285156 2 11.625 2 C 13.484375 2 15 3.554688 15 5.5 C 15 5.804688 14.960938 6.101563 14.890625 6.378906 C 14.824219 6.648438 14.988281 6.917969 15.257813 6.984375 C 15.523438 7.050781 15.796875 6.890625 15.863281 6.621094 C 15.953125 6.261719 16 5.886719 16 5.5 C 16 3.027344 14.042969 1 11.625 1 Z M 6.78125 3 C 5.652344 2.980469 3.945313 3.863281 2.429688 5.355469 C 0.917969 6.847656 0.0390625 8.429688 0.0390625 9.796875 C 0.0351563 12.746094 3.441406 14 6.769531 14 C 11.132813 14 14.035156 11.503906 14.035156 9.519531 C 14.035156 8.320313 13.011719 7.640625 12.09375 7.359375 C 11.867188 7.292969 11.710938 7.246094 11.828125 6.953125 C 12.085938 6.320313 12.113281 5.773438 11.832031 5.382813 C 11.3125 4.648438 9.886719 4.6875 8.253906 5.359375 C 8.253906 5.359375 7.738281 5.582031 7.871094 5.179688 C 8.121094 4.386719 8.085938 3.71875 7.695313 3.332031 C 7.472656 3.113281 7.160156 3.007813 6.78125 3 Z M 12 3 C 11.765625 3 11.539063 3.039063 11.328125 3.117188 C 11.15625 3.171875 11.027344 3.316406 10.992188 3.496094 C 10.957031 3.675781 11.023438 3.859375 11.164063 3.976563 C 11.304688 4.09375 11.496094 4.125 11.667969 4.054688 C 11.769531 4.019531 11.878906 4 12 4 C 12.558594 4 13 4.441406 13 5 C 13 5.117188 12.980469 5.230469 12.941406 5.335938 C 12.882813 5.503906 12.917969 5.691406 13.035156 5.828125 C 13.152344 5.964844 13.332031 6.027344 13.507813 5.992188 C 13.683594 5.960938 13.828125 5.835938 13.886719 5.664063 C 13.960938 5.457031 14 5.230469 14 5 C 14 3.902344 13.097656 3 12 3 Z M 6.492188 6.960938 C 8.792969 6.996094 10.878906 7.925781 11.03125 9.429688 C 11.203125 11.148438 9.566406 13 5.625 13 L 5.5 13 C 3.976563 13 2.179688 12.261719 2.007813 10.542969 C 1.832031 8.824219 2.84375 7.257813 5.5 7 C 5.832031 6.96875 6.164063 6.953125 6.492188 6.960938 Z M 5.929688 8.007813 C 4.820313 7.929688 3.6875 8.476563 3.21875 9.351563 C 2.667969 10.375 3.199219 11.511719 4.453125 11.882813 C 5.753906 12.265625 7.285156 11.679688 7.820313 10.574219 C 8.34375 9.496094 7.6875 8.382813 6.402344 8.078125 C 6.246094 8.039063 6.089844 8.019531 5.929688 8.007813 Z M 6.15625 9.351563 C 6.316406 9.40625 6.371094 9.570313 6.285156 9.710938 C 6.195313 9.855469 5.992188 9.925781 5.835938 9.867188 C 5.679688 9.808594 5.628906 9.648438 5.71875 9.507813 C 5.808594 9.367188 6 9.296875 6.15625 9.351563 Z M 4.84375 9.671875 C 4.953125 9.675781 5.0625 9.695313 5.164063 9.734375 C 5.570313 9.890625 5.703125 10.320313 5.453125 10.691406 C 5.199219 11.058594 4.660156 11.222656 4.253906 11.050781 C 3.851563 10.886719 3.734375 10.453125 3.984375 10.09375 C 4.171875 9.828125 4.515625 9.671875 4.84375 9.671875 Z "/>
</g>
</svg>
