
<svg width="28px" height="29px" viewBox="0 0 28 29" version="1.1" xmlns="http://www.w3.org/2000/svg" xmlns:xlink="http://www.w3.org/1999/xlink">
    <!-- Generator: Sketch 51.3 (57544) - http://www.bohemiancoding.com/sketch -->
    <desc>Created with Sketch.</desc>
    <defs></defs>
    <g id="io-2.5-User-Flow-Version" stroke="none" stroke-width="1" fill="none" fill-rule="evenodd">
        <g id="lovemaker.io-Menu-Slide-Left" transform="translate(-219.000000, -731.000000)">
            <g id="关注我们-Connect-with-us" transform="translate(60.000000, 698.000000)">
                <g id="youtube" transform="translate(159.000000, 33.000000)">
                    <ellipse id="Oval" stroke="#000000" stroke-width="2" fill="#FFFFFF" cx="14" cy="14.5063236" rx="13" ry="13.1777778"></ellipse>
                    <path d="M10.1344164,18.0555182 L10.1449893,15.4447223 L10.626811,15.4396061 L11.1081292,15.4334667 L11.102591,15.0313335 L11.0965493,14.6286887 L9.70596261,14.6230609 L8.31638281,14.6174331 L8.31638281,15.0257057 L8.31638281,15.4334667 L8.78662467,15.4396061 L9.25686653,15.4447223 L9.26240471,18.0340302 C9.26492206,19.4578681 9.27197066,20.6356169 9.27750884,20.6504539 C9.2850609,20.6714303 9.38273426,20.6765465 9.70545914,20.6719419 L10.1238435,20.6663141 L10.1344164,18.0555182 Z M18.1552119,17.8718467 C18.1355766,17.8196615 18.162764,17.2164617 18.1889445,17.1289747 C18.2498645,16.9233036 18.3792565,16.8230261 18.5831622,16.8230261 C18.752832,16.8230261 18.8605747,16.8895367 18.9330746,17.0389296 C18.9788904,17.1335793 18.9834216,17.1739973 18.9904702,17.5239452 L18.9975188,17.905102 L18.5821553,17.905102 C18.2251944,17.905102 18.1657848,17.9004974 18.1552119,17.8718467 L18.1552119,17.8718467 Z M18.9305572,20.6847324 C19.3373617,20.5685947 19.618802,20.2861806 19.7250343,19.8876288 C19.7426558,19.8195833 19.7632981,19.6256794 19.7703467,19.4573565 L19.78243,19.1514079 L19.3907296,19.1514079 L18.9985258,19.1514079 L18.9889598,19.4256361 C18.9778835,19.7372125 18.9461648,19.8441411 18.8343942,19.9439069 C18.7155751,20.0498122 18.4970687,20.0574865 18.3550899,19.9602788 C18.1859237,19.8441411 18.1441356,19.6481907 18.1526946,19.0117356 L18.1587362,18.560487 L18.9698279,18.5553708 L19.7809196,18.5492313 L19.7703467,17.8779861 C19.7572565,17.1289747 19.7421524,17.0153951 19.6182985,16.7493528 C19.3821706,16.2454073 18.7281619,15.9911323 18.1849167,16.1921988 C17.7750914,16.3441499 17.5329219,16.6178665 17.435752,17.0414877 C17.4015159,17.1908807 17.3974882,17.3249251 17.3974882,18.4208148 C17.3974882,19.76484 17.4020194,19.8195833 17.5369496,20.0948348 C17.7781122,20.584455 18.3817739,20.8402649 18.9305572,20.6847324 L18.9305572,20.6847324 Z M15.7189161,19.9193492 C15.7687597,19.8850707 15.8014853,19.83749 15.8271623,19.7633052 C15.8598879,19.6655858 15.8629088,19.5412622 15.8583775,18.3885827 C15.8538463,17.1872994 15.8513289,17.1166959 15.8130651,17.0379064 C15.7148883,16.8368398 15.4676841,16.8173983 15.2411221,16.9933955 L15.1666084,17.0506969 L15.1666084,18.4208148 L15.1666084,19.7909326 L15.2406187,19.848234 C15.4082745,19.9781855 15.5920414,20.0053013 15.7189161,19.9193492 L15.7189161,19.9193492 Z M16.2098002,20.6929184 C16.3331506,20.6565933 16.482178,20.507712 16.5491396,20.3557609 C16.6780282,20.0646492 16.6785317,20.0574865 16.6785317,18.4208148 C16.6785317,17.0773011 16.6745039,16.9115363 16.6417783,16.7662363 C16.5355459,16.3011739 16.3039493,16.0980608 15.9142628,16.1277348 C15.6962599,16.1451298 15.5245763,16.2331284 15.3186567,16.4352183 C15.2290388,16.5227052 15.148987,16.5948436 15.1399245,16.5948436 C15.1318689,16.5948436 15.1243169,16.1497344 15.1243169,15.6063942 L15.1243169,14.6179447 L14.7436928,14.6179447 L14.3630688,14.6179447 L14.3630688,17.6472456 L14.3630688,20.6770581 L14.7436928,20.6770581 L15.1243169,20.6770581 L15.1243169,20.4729218 C15.1243169,20.3373426 15.1323724,20.2687855 15.14798,20.2687855 C15.1605668,20.2687855 15.2461568,20.3404123 15.338292,20.4284109 C15.6343329,20.7113367 15.8905997,20.7891029 16.2098002,20.6929184 L16.2098002,20.6929184 Z M12.1583696,20.6729652 C12.3104178,20.6156638 12.48915,20.4898053 12.6396878,20.3342729 C12.7086633,20.2626461 12.7776388,20.2043214 12.792743,20.2043214 C12.8128818,20.2043214 12.8199304,20.2626461 12.8199304,20.4406898 L12.8199304,20.6770581 L13.2005544,20.6770581 L13.5811784,20.6770581 L13.5811784,18.4315588 L13.5811784,16.186571 L13.2005544,16.186571 L12.8199304,16.186571 L12.8199304,17.9184041 L12.8199304,19.6507488 L12.6557989,19.816002 C12.5259034,19.9474883 12.4715285,19.9873946 12.3909731,20.0099059 C12.255036,20.0482774 12.168439,20.0216732 12.1125537,19.9239538 C12.0702621,19.8513038 12.0692552,19.8175369 12.0632136,18.01817 L12.0576754,16.186571 L11.6770513,16.186571 L11.2974343,16.186571 L11.2974343,18.1312379 C11.2974343,20.2498556 11.2994481,20.2959014 11.4162534,20.5000377 C11.544135,20.7231039 11.8431968,20.7931958 12.1583696,20.6729652 L12.1583696,20.6729652 Z M12.4815979,22.5465169 C11.9871894,22.5378194 11.4021562,22.5240057 11.1811325,22.5158197 C9.6974036,22.461588 8.67888189,22.403775 8.47547963,22.3618222 C8.18548036,22.3024743 7.86124508,22.1029426 7.67294695,21.8681091 C7.37187132,21.4920685 7.21076062,21.0357036 7.13272263,20.3332496 C6.95197656,18.7001592 6.95600432,16.7953986 7.14379899,15.2196096 C7.22636822,14.5289228 7.43128089,14.0300935 7.77515155,13.682192 C7.97150521,13.4831719 8.16030682,13.3726621 8.41153882,13.3071747 C8.95629438,13.165456 13.2186794,13.0528997 15.8115547,13.1112243 C17.3093808,13.1449912 18.9275364,13.2155948 19.3575006,13.2652219 C19.9138359,13.329686 20.3045294,13.6223325 20.5748933,14.17744 C20.7793025,14.5964566 20.8442502,14.9228701 20.927323,15.9287146 C20.9922707,16.7247951 21.0083818,17.2210663 20.9962985,18.1404471 C20.9827048,19.2404297 20.9137292,20.2094376 20.8105177,20.7532895 C20.701768,21.3283502 20.4449978,21.8184819 20.1122035,22.0840126 C19.8559368,22.2891722 19.5825521,22.3807521 19.1520844,22.4053099 C19.0242028,22.4129842 18.8625886,22.4232166 18.7926062,22.4288444 C18.5448985,22.4482859 17.2167421,22.5025176 16.4882197,22.523494 C15.4057571,22.5541912 13.5116995,22.5649353 12.4815979,22.5465169 Z M11.1458327,12.5672003 C11.1277077,12.5370147 11.1307285,10.7693682 11.1488535,10.5191862 C11.1725166,10.1984005 11.1191487,9.94566035 10.8925868,9.29999614 C10.81908,9.09074364 10.6861637,8.68451751 10.5975528,8.39801041 C9.95663431,6.32646178 9.99036686,6.44771568 10.0517903,6.44720406 C10.4742024,6.44362272 10.9952949,6.44618082 11.0013365,6.45232026 C11.0053643,6.45641322 11.1423084,6.96189359 11.3059364,7.57634899 C11.470068,8.19029277 11.6065086,8.70140096 11.6100329,8.7126566 C11.6130537,8.72288899 11.7092167,8.36526674 11.8235046,7.9175994 C12.0626533,6.97826543 12.19708,6.45999455 12.2021147,6.45538998 C12.2126876,6.44515758 12.3315067,6.4431111 12.7206898,6.44515758 L13.1511574,6.44771568 L13.1415915,6.51780759 C13.1340394,6.57459739 12.8400124,7.57737223 12.5323916,8.59600728 C12.4991626,8.70856364 12.413069,8.99865207 12.3420796,9.24115986 C12.2710902,9.48315604 12.1855002,9.77068637 12.1512641,9.88017301 L12.0893372,10.0797047 L12.0893372,11.3239641 C12.0893372,12.4909689 12.0868199,12.5692468 12.0525838,12.5784559 C11.9750493,12.5999439 11.1594264,12.5897115 11.1458327,12.5672003 Z M16.7091866,12.6418968 C16.4967218,12.6132461 16.3723645,12.529852 16.2872779,12.3584594 C16.1805421,12.1435791 16.1805421,12.1446023 16.1805421,10.0034734 L16.1805421,8.00559801 L16.6094993,8.00559801 L17.0379531,8.00559801 L17.0470156,9.84742934 C17.0565815,11.8478628 17.0540642,11.8013054 17.1718764,11.831491 C17.2801226,11.8586068 17.3999487,11.7997706 17.5489761,11.6452614 L17.6919619,11.4974032 L17.6975,9.75124482 L17.7025347,8.00559801 L18.1309885,7.99945857 L18.5594423,7.99434238 L18.5594423,10.2807713 L18.5594423,12.5677119 L18.5010397,12.5799908 C18.4310572,12.5948277 17.7815797,12.5938045 17.7292187,12.5784559 C17.6975,12.5697584 17.6924653,12.5400844 17.6924653,12.3610175 L17.6924653,12.1532998 L17.5706254,12.2740421 C17.2906955,12.5508284 16.9886129,12.6797566 16.7091866,12.6418968 L16.7091866,12.6418968 Z M14.5503032,11.7685617 C14.6973167,11.6549821 14.6983236,11.6452614 14.7058757,10.3595608 C14.7124208,9.36036728 14.7088965,9.1905095 14.6791917,9.05441863 C14.6389141,8.8702355 14.5684281,8.78326013 14.4304771,8.74488864 C14.2522484,8.69679638 14.0891238,8.80014358 14.0317281,8.99814045 C13.9884296,9.15060316 13.9889331,11.4170789 14.032735,11.5695416 C14.0659641,11.6841445 14.1721965,11.8094913 14.250738,11.8268864 C14.3529426,11.8488861 14.4783068,11.8243283 14.5508066,11.7685617 L14.5503032,11.7685617 Z M14.2144881,12.6408735 C13.8308432,12.5938045 13.4784135,12.3645988 13.3087438,12.0514875 C13.1360533,11.7327484 13.1199422,11.5659603 13.1300117,10.1620755 C13.1380672,9.07488342 13.141088,9.00683799 13.1833796,8.85079395 C13.2845772,8.47986958 13.4804274,8.22712939 13.7840204,8.07415507 C14.2008943,7.86490256 14.6504939,7.89201841 15.0437047,8.15089804 C15.2944332,8.315128 15.4464815,8.55354283 15.5280437,8.90809536 C15.5637902,9.06465103 15.5673145,9.18488168 15.5673145,10.2828178 C15.5673145,11.6181455 15.5612728,11.6954001 15.4263426,11.9844653 C15.2969506,12.2632981 15.0039305,12.5088756 14.6983236,12.5953394 C14.5633934,12.6326876 14.3292794,12.6551989 14.2144881,12.6408735 L14.2144881,12.6408735 Z" id="Shape" fill="#000000"></path>
                </g>
            </g>
        </g>
    </g>
</svg>