<?xml version="1.0" encoding="UTF-8"?>
<svg width="100px" height="100px" viewBox="0 0 100 100" version="1.1" xmlns="http://www.w3.org/2000/svg" xmlns:xlink="http://www.w3.org/1999/xlink">
    <!-- Generator: Sketch 51.3 (57544) - http://www.bohemiancoding.com/sketch -->
    <title>知乎</title>
    <desc>Created with Sketch.</desc>
    <defs></defs>
    <g id="io-2.5-User-Flow-Version" stroke="none" stroke-width="1" fill="none" fill-rule="evenodd" opacity="0.5">
        <g id="Lovemaker.io-首页-Style-4-Step2" transform="translate(-138.000000, -2943.000000)" fill="#000000" fill-rule="nonzero">
            <g id="Press-Section" transform="translate(31.000000, 2690.000000)">
                <g id="知乎" transform="translate(107.000000, 253.000000)">
                    <g id="Group">
                        <path d="M78.0273437,0 L21.9726562,0 C9.8375,0 0,9.8375 0,21.9726562 L0,78.0273437 C0,90.1625 9.8375,100 21.9726562,100 L78.0273437,100 C90.1625,100 100,90.1625 100,78.0273437 L100,21.9726562 C100,9.8375 90.1625,0 78.0273437,0 Z M39.6614258,58.3876953 C41.5547852,60.2860352 46.0391602,65.5634766 47.6831055,67.4994141 C49.6685547,70.340625 47.9128906,76.3132812 47.9128906,76.3132812 C47.9128906,76.3132812 46.4899414,74.7025391 45.3519531,73.1828125 C42.884082,69.9602539 39.8479492,66.2615234 36.246875,62.0864258 C33.5147461,72.5775391 28.5297852,77.1071289 28.5297852,77.1071289 C27.2961914,78.856543 18.9831055,80.6736328 17.4676758,79.1582031 C26.759668,71.9519531 31.9660156,62.9092773 32.9169922,52.0973633 L18.6056641,52.0973633 C18.6056641,52.0973633 19.4345703,46.9214844 21.9808594,46.9214844 L33.5734375,46.9214844 L33.9154297,40.1771484 C34.1018555,36.3856445 34.0249023,33.4791016 34.0249023,31.2027344 L27.4264648,31.2027344 C26.8570312,32.9104492 26.7700195,32.9496094 26.3119141,34.2240234 C23.8237305,38.7866211 19.5994141,38.902832 18.3208008,39.0393555 C22.1138672,31.4535156 24.2439453,24.0291992 24.9789062,22.0961914 C26.7583984,17.4144531 31.9785156,17.4144531 31.9785156,17.4144531 C30.8405273,20.4516602 29.8893555,23.1791992 29.1333008,26.0244141 L48.328418,26.0244141 C50.6157227,25.968457 50.1890625,31.2027344 50.1890625,31.2027344 L39.1768555,31.2027344 C39.1768555,35.946875 38.9848633,41.0451172 38.6074219,46.9214844 L49.9636719,46.9214844 C51.5917969,46.9214844 51.6108398,52.0973633 51.6108398,52.0973633 L38.2384766,52.0973633 C38.0483398,54.9422852 37.478418,57.9173828 36.531543,60.9482422 L39.6614258,58.3876953 Z M81.0066406,72.150293 C81.0066406,72.4961914 80.60625,72.8998047 80.2611328,72.8998047 C78.7782227,72.8998047 75.6579102,72.8998047 75.6579102,72.8998047 C75.6579102,72.8998047 71.6870117,72.9008789 70.321875,72.9008789 C68.955957,72.9008789 61.1646484,78.2341797 61.1646484,78.2341797 L59.537207,72.9008789 C59.537207,72.9008789 56.9977539,72.9 55.587207,72.9 C55.1913086,72.9 54.8421875,72.496582 54.8421875,72.1487305 C54.8421875,66.5498047 54.8421875,31.6042969 54.8421875,25.9950195 C54.8421875,25.5417969 55.1928711,25.2425781 55.5918945,25.2425781 C59.6425781,25.2425781 78.3583984,25.244043 80.2595703,25.244043 C80.7581055,25.244043 81.0066406,25.6426758 81.0066406,25.9918945 C81.0066406,28.7099609 81.0066406,66.3289062 81.0066406,72.150293 Z" id="Shape"></path>
                        <path d="M75.2391602,30.3198242 C72.8808594,30.3198242 62.9757812,30.3198242 60.6067383,30.3198242 C60.3583008,30.3198242 60.1080078,30.5649414 60.1080078,30.8199219 C60.1080078,34.9008789 60.1080078,63.1501953 60.1080078,67.2275391 C60.1080078,67.475 60.3592773,67.725 60.6083008,67.725 C61.2022461,67.725 62.2314453,67.724707 62.2314453,67.724707 L63.309668,71.8760742 L70.0009766,67.7250977 C70.0009766,67.7250977 73.8556641,67.7250977 75.2376953,67.7250977 C75.4869141,67.7250977 75.7334961,67.4754883 75.7334961,67.2259766 C75.7334961,63.1431641 75.7334961,34.900293 75.7334961,30.8199219 C75.7333984,30.5680664 75.4847656,30.3198242 75.2391602,30.3198242 Z" id="Shape"></path>
                    </g>
                </g>
            </g>
        </g>
    </g>
</svg>